<?xml version="1.0" encoding="UTF-8"?>
<svg id="Layer_1" data-name="Layer 1" xmlns="http://www.w3.org/2000/svg" viewBox="0 0 163.95 44.46">
  <defs>
    <style>
      .cls-1 {
        font-family: Ekamai, Ekamai;
        font-size: 19.13px;
      }

      .cls-1, .cls-2 {
        fill: #ce3c8c;
      }

      .cls-3 {
        fill: #fff;
      }

      .cls-4 {
        letter-spacing: .01em;
      }

      .cls-5 {
        letter-spacing: -.02em;
      }

      .cls-6 {
        fill: #91195b;
      }
    </style>
  </defs>
  <g>
    <path class="cls-6" d="M31.38,6.16h0c.78,2.39,3,4.01,5.51,4.01h0c8.63,0,12.22,11.04,5.24,16.12h0c-2.03,1.48-2.88,4.09-2.11,6.48h0c2.67,8.21-6.73,15.03-13.71,9.96h0c-2.03-1.48-4.78-1.48-6.81,0h0c-6.98,5.07-16.38-1.75-13.71-9.96h0c.78-2.39-.07-5-2.11-6.48h0C-3.29,21.2.3,10.16,8.93,10.16h0c2.51,0,4.74-1.62,5.51-4.01h0c2.67-8.21,14.28-8.21,16.94,0Z"/>
    <path class="cls-3" d="M29.56,10.04h0c.46,1.41,1.77,2.36,3.25,2.36h0c6.78,0,9.59,8.67,4.11,12.65h0c-1.2.87-1.7,2.41-1.24,3.82h0c2.09,6.44-5.28,11.8-10.76,7.82h0c-1.2-.87-2.82-.87-4.01,0h0c-5.48,3.98-12.86-1.38-10.76-7.82h0c.46-1.41-.04-2.95-1.24-3.82h0c-5.48-3.98-2.66-12.65,4.11-12.65h0c1.48,0,2.79-.95,3.25-2.36h0c2.09-6.44,11.21-6.44,13.3,0Z"/>
    <path class="cls-2" d="M27.82,13.45h0c.2.61.76,1.02,1.4,1.02h0c5,0,7.08,6.4,3.03,9.33h0c-.52.38-.73,1.04-.54,1.65h0c1.54,4.75-3.9,8.71-7.94,5.77h0c-.52-.38-1.22-.38-1.73,0h0c-4.04,2.94-9.48-1.02-7.94-5.77h0c.2-.61-.02-1.27-.54-1.65h0c-4.04-2.94-1.97-9.33,3.03-9.33h0c.64,0,1.21-.41,1.4-1.02h0c1.54-4.75,8.27-4.75,9.81,0Z"/>
  </g>
  <text class="cls-1" transform="translate(53.18 27.98)"><tspan x="0" y="0">SIMPLE </tspan><tspan class="cls-4" x="64.35" y="0">B</tspan><tspan class="cls-5" x="76.13" y="0">A</tspan><tspan x="87.02" y="0">SE </tspan></text>
</svg>